<svg width="220" height="38" viewBox="0 0 220 38" fill="none" xmlns="http://www.w3.org/2000/svg">
<rect width="220" height="38" fill="#EE3643"/>
<mask id="mask0" mask-type="alpha" maskUnits="userSpaceOnUse" x="0" y="0" width="220" height="38">
<rect width="220" height="38" fill="#EE3643"/>
</mask>
<g mask="url(#mask0)">
<rect width="220" height="38" fill="#EE3643"/>
</g>
<path d="M40.8729 24V14.2H46.3329V24H45.0729V15.18H42.1329V24H40.8729ZM51.0268 24.14C50.3641 24.14 49.8134 23.9907 49.3748 23.692C48.9361 23.384 48.6001 22.8613 48.3668 22.124C48.1334 21.3773 48.0168 20.3693 48.0168 19.1C48.0168 17.8307 48.1334 16.8273 48.3668 16.09C48.6001 15.3433 48.9361 14.8207 49.3748 14.522C49.8134 14.214 50.3641 14.06 51.0268 14.06C51.6894 14.06 52.2401 14.214 52.6788 14.522C53.1174 14.8207 53.4534 15.3433 53.6868 16.09C53.9201 16.8273 54.0368 17.8307 54.0368 19.1C54.0368 20.3693 53.9201 21.3773 53.6868 22.124C53.4534 22.8613 53.1174 23.384 52.6788 23.692C52.2401 23.9907 51.6894 24.14 51.0268 24.14ZM51.0268 23.3C52.1934 23.3 52.7768 21.9 52.7768 19.1C52.7768 16.3 52.1934 14.9 51.0268 14.9C49.8601 14.9 49.2768 16.3 49.2768 19.1C49.2768 21.9 49.8601 23.3 51.0268 23.3ZM54.7439 23.02H55.4439C55.4439 23.048 55.4999 22.9313 55.6119 22.67C55.7332 22.3993 55.8452 22.054 55.9479 21.634C56.0505 21.2047 56.1159 20.71 56.1439 20.15L56.4239 14.2H60.9739V23.02H61.8839V26.1H61.1139C60.9085 25.54 60.7685 24.84 60.6939 24H55.9339C55.8685 24.84 55.7285 25.54 55.5139 26.1H54.7439V23.02ZM59.7139 23.02V15.18H57.6419L57.4039 20.15C57.3759 20.71 57.3105 21.2047 57.2079 21.634C57.1052 22.054 56.9932 22.3993 56.8719 22.67C56.7599 22.9313 56.7039 23.048 56.7039 23.02H59.7139ZM63.2128 14.34C63.8381 14.1533 64.5848 14.06 65.4528 14.06C66.2181 14.06 66.8201 14.1673 67.2588 14.382C67.7068 14.5967 68.0288 14.956 68.2248 15.46C68.4301 15.964 68.5328 16.664 68.5328 17.56C68.5328 18.4653 68.4394 19.1793 68.2528 19.702C68.0661 20.2153 67.7768 20.584 67.3848 20.808C67.0021 21.0227 66.4981 21.13 65.8728 21.13C65.6674 21.13 65.4294 21.116 65.1588 21.088C64.8881 21.06 64.6594 21.0273 64.4728 20.99V24H63.2128V14.34ZM65.4528 20.15C65.8914 20.15 66.2414 20.0753 66.5028 19.926C66.7641 19.7673 66.9554 19.5013 67.0768 19.128C67.2074 18.7547 67.2728 18.232 67.2728 17.56C67.2728 16.888 67.2074 16.3653 67.0768 15.992C66.9554 15.6187 66.7641 15.3573 66.5028 15.208C66.2414 15.0493 65.8914 14.97 65.4528 14.97H64.4728V20.15H65.4528ZM72.8061 24.14C72.1434 24.14 71.5927 23.9907 71.1541 23.692C70.7154 23.384 70.3794 22.8613 70.1461 22.124C69.9127 21.3773 69.7961 20.3693 69.7961 19.1C69.7961 17.8307 69.9127 16.8273 70.1461 16.09C70.3794 15.3433 70.7154 14.8207 71.1541 14.522C71.5927 14.214 72.1434 14.06 72.8061 14.06C73.4687 14.06 74.0194 14.214 74.4581 14.522C74.8967 14.8207 75.2327 15.3433 75.4661 16.09C75.6994 16.8273 75.8161 17.8307 75.8161 19.1C75.8161 20.3693 75.6994 21.3773 75.4661 22.124C75.2327 22.8613 74.8967 23.384 74.4581 23.692C74.0194 23.9907 73.4687 24.14 72.8061 24.14ZM72.8061 23.3C73.9727 23.3 74.5561 21.9 74.5561 19.1C74.5561 16.3 73.9727 14.9 72.8061 14.9C71.6394 14.9 71.0561 16.3 71.0561 19.1C71.0561 21.9 71.6394 23.3 72.8061 23.3ZM79.7399 24.14C78.8719 24.14 78.1252 24.0467 77.4999 23.86V14.2H82.3999V15.18H78.7599V18.05H79.7399C80.4959 18.05 81.0979 18.1527 81.5459 18.358C81.9939 18.554 82.3159 18.876 82.5119 19.324C82.7172 19.772 82.8199 20.374 82.8199 21.13C82.8199 21.858 82.7172 22.4413 82.5119 22.88C82.3065 23.3187 81.9799 23.6407 81.5319 23.846C81.0932 24.042 80.4959 24.14 79.7399 24.14ZM79.7399 23.23C80.3839 23.23 80.8459 23.0713 81.1259 22.754C81.4152 22.4273 81.5599 21.886 81.5599 21.13C81.5599 20.374 81.4152 19.8373 81.1259 19.52C80.8459 19.1933 80.3839 19.03 79.7399 19.03H78.7599V23.23H79.7399ZM84.3632 24V14.2H85.6232V18.54H88.5632V14.2H89.8232V24H88.5632V19.52H85.6232V24H84.3632ZM91.787 24V14.2H96.547V15.18H93.047V18.4H96.127V19.38H93.047V23.02H96.547V24H91.787ZM98.0897 24V14.2H102.85V15.18H99.3497V18.4H102.43V19.38H99.3497V23.02H102.85V24H98.0897ZM110.622 24.14C109.96 24.14 109.409 23.9907 108.97 23.692C108.532 23.384 108.196 22.8613 107.962 22.124C107.729 21.3773 107.612 20.3693 107.612 19.1C107.612 17.8307 107.729 16.8273 107.962 16.09C108.196 15.3433 108.532 14.8207 108.97 14.522C109.409 14.214 109.96 14.06 110.622 14.06C111.285 14.06 111.836 14.214 112.274 14.522C112.713 14.8207 113.049 15.3433 113.282 16.09C113.516 16.8273 113.632 17.8307 113.632 19.1C113.632 20.3693 113.516 21.3773 113.282 22.124C113.049 22.8613 112.713 23.384 112.274 23.692C111.836 23.9907 111.285 24.14 110.622 24.14ZM110.622 23.3C111.789 23.3 112.372 21.9 112.372 19.1C112.372 16.3 111.789 14.9 110.622 14.9C109.456 14.9 108.872 16.3 108.872 19.1C108.872 21.9 109.456 23.3 110.622 23.3ZM123.856 24.14C123.436 24.14 123.086 24 122.806 23.72C122.536 23.44 122.349 23.02 122.246 22.46L121.896 20.64C121.812 20.1827 121.654 19.8607 121.42 19.674C121.196 19.478 120.912 19.38 120.566 19.38H120.076V24H118.816V14.2H120.076V18.4H120.566C121.154 18.4 121.551 17.98 121.756 17.14L122.106 15.74C122.246 15.18 122.452 14.76 122.722 14.48C122.993 14.2 123.324 14.06 123.716 14.06C123.922 14.06 124.113 14.0833 124.29 14.13C124.468 14.1673 124.556 14.1907 124.556 14.2V14.83C124.22 14.83 123.968 14.9093 123.8 15.068C123.632 15.2173 123.511 15.4413 123.436 15.74L123.086 17.14C122.946 17.7093 122.783 18.1153 122.596 18.358C122.41 18.6007 122.153 18.7687 121.826 18.862V18.918C122.209 19.0207 122.512 19.198 122.736 19.45C122.96 19.6927 123.124 20.0893 123.226 20.64L123.576 22.46C123.632 22.7307 123.749 22.95 123.926 23.118C124.113 23.286 124.37 23.37 124.696 23.37V24C124.696 24.0093 124.608 24.0327 124.43 24.07C124.253 24.1167 124.062 24.14 123.856 24.14ZM128.341 24.14C127.679 24.14 127.128 23.9907 126.689 23.692C126.251 23.384 125.915 22.8613 125.681 22.124C125.448 21.3773 125.331 20.3693 125.331 19.1C125.331 17.8307 125.448 16.8273 125.681 16.09C125.915 15.3433 126.251 14.8207 126.689 14.522C127.128 14.214 127.679 14.06 128.341 14.06C129.004 14.06 129.555 14.214 129.993 14.522C130.432 14.8207 130.768 15.3433 131.001 16.09C131.235 16.8273 131.351 17.8307 131.351 19.1C131.351 20.3693 131.235 21.3773 131.001 22.124C130.768 22.8613 130.432 23.384 129.993 23.692C129.555 23.9907 129.004 24.14 128.341 24.14ZM128.341 23.3C129.508 23.3 130.091 21.9 130.091 19.1C130.091 16.3 129.508 14.9 128.341 14.9C127.175 14.9 126.591 16.3 126.591 19.1C126.591 21.9 127.175 23.3 128.341 23.3ZM132.825 24L133.385 14.2H134.925L137.207 20.92H137.263L139.545 14.2H141.085L141.645 24H140.385L139.965 16.72H139.895L137.865 22.74H136.605L134.575 16.72H134.505L134.085 24H132.825ZM143.398 24V14.2H148.858V24H147.598V15.18H144.658V24H143.398ZM150.122 24L152.502 14.2H154.322L156.702 24H155.442L154.812 21.48H152.012L151.382 24H150.122ZM152.222 20.5H154.602L153.44 15.6H153.384L152.222 20.5ZM157.959 24V14.2H159.219V18.54H162.159V14.2H163.419V24H162.159V19.52H159.219V24H157.959ZM165.383 24V14.2H166.643V21.48H166.713L169.513 14.2H170.983V24H169.723V16.72H169.653L166.783 24H165.383ZM172.943 24V14.2H174.203V21.48H174.273L177.073 14.2H178.543V24H177.283V16.72H177.213L174.343 24H172.943Z" fill="white"/>
</svg>
