<svg width="192" height="38" viewBox="0 0 192 38" fill="none" xmlns="http://www.w3.org/2000/svg">
<rect width="192" height="38" fill="#EE3643"/>
<mask id="mask0" mask-type="alpha" maskUnits="userSpaceOnUse" x="0" y="0" width="192" height="38">
<rect width="192" height="38" fill="#EE3643"/>
</mask>
<g mask="url(#mask0)">
<rect width="192" height="38" fill="#EE3643"/>
</g>
<path d="M49.9991 24.14C49.3364 24.14 48.7858 23.9907 48.3471 23.692C47.9084 23.384 47.5724 22.8613 47.3391 22.124C47.1058 21.3773 46.9891 20.3693 46.9891 19.1C46.9891 17.8307 47.1058 16.8273 47.3391 16.09C47.5724 15.3433 47.9084 14.8207 48.3471 14.522C48.7858 14.214 49.3364 14.06 49.9991 14.06C50.6618 14.06 51.2124 14.214 51.6511 14.522C52.0898 14.8207 52.4258 15.3433 52.6591 16.09C52.8924 16.8273 53.0091 17.8307 53.0091 19.1C53.0091 20.3693 52.8924 21.3773 52.6591 22.124C52.4258 22.8613 52.0898 23.384 51.6511 23.692C51.2124 23.9907 50.6618 24.14 49.9991 24.14ZM49.9991 23.3C51.1658 23.3 51.7491 21.9 51.7491 19.1C51.7491 16.3 51.1658 14.9 49.9991 14.9C48.8324 14.9 48.2491 16.3 48.2491 19.1C48.2491 21.9 48.8324 23.3 49.9991 23.3ZM55.8195 24V15.18H53.5795V14.2H59.3195V15.18H57.0795V24H55.8195ZM65.4751 24.14C65.0551 24.14 64.7051 24 64.4251 23.72C64.1544 23.44 63.9678 23.02 63.8651 22.46L63.5151 20.64C63.4311 20.1827 63.2724 19.8607 63.0391 19.674C62.8151 19.478 62.5304 19.38 62.1851 19.38H61.6951V24H60.4351V14.2H61.6951V18.4H62.1851C62.7731 18.4 63.1698 17.98 63.3751 17.14L63.7251 15.74C63.8651 15.18 64.0704 14.76 64.3411 14.48C64.6118 14.2 64.9431 14.06 65.3351 14.06C65.5404 14.06 65.7318 14.0833 65.9091 14.13C66.0864 14.1673 66.1751 14.1907 66.1751 14.2V14.83C65.8391 14.83 65.5871 14.9093 65.4191 15.068C65.2511 15.2173 65.1298 15.4413 65.0551 15.74L64.7051 17.14C64.5651 17.7093 64.4018 18.1153 64.2151 18.358C64.0284 18.6007 63.7718 18.7687 63.4451 18.862V18.918C63.8278 19.0207 64.1311 19.198 64.3551 19.45C64.5791 19.6927 64.7424 20.0893 64.8451 20.64L65.1951 22.46C65.2511 22.7307 65.3678 22.95 65.5451 23.118C65.7318 23.286 65.9884 23.37 66.3151 23.37V24C66.3151 24.0093 66.2264 24.0327 66.0491 24.07C65.8718 24.1167 65.6804 24.14 65.4751 24.14ZM67.3667 14.34C67.9921 14.1533 68.7387 14.06 69.6067 14.06C70.3721 14.06 70.9741 14.1673 71.4127 14.382C71.8607 14.5967 72.1827 14.956 72.3787 15.46C72.5841 15.964 72.6867 16.664 72.6867 17.56C72.6867 18.4653 72.5934 19.1793 72.4067 19.702C72.2201 20.2153 71.9307 20.584 71.5387 20.808C71.1561 21.0227 70.6521 21.13 70.0267 21.13C69.8214 21.13 69.5834 21.116 69.3127 21.088C69.0421 21.06 68.8134 21.0273 68.6267 20.99V24H67.3667V14.34ZM69.6067 20.15C70.0454 20.15 70.3954 20.0753 70.6567 19.926C70.9181 19.7673 71.1094 19.5013 71.2307 19.128C71.3614 18.7547 71.4267 18.232 71.4267 17.56C71.4267 16.888 71.3614 16.3653 71.2307 15.992C71.1094 15.6187 70.9181 15.3573 70.6567 15.208C70.3954 15.0493 70.0454 14.97 69.6067 14.97H68.6267V20.15H69.6067ZM76.47 24.14C75.602 24.14 74.8553 24.0467 74.23 23.86V14.2H75.49V18.19C75.6767 18.1527 75.9053 18.12 76.176 18.092C76.4467 18.064 76.6847 18.05 76.89 18.05C77.786 18.05 78.4393 18.288 78.85 18.764C79.27 19.24 79.48 20.0287 79.48 21.13C79.48 21.858 79.3773 22.4413 79.172 22.88C78.976 23.3187 78.6587 23.6407 78.22 23.846C77.7813 24.042 77.198 24.14 76.47 24.14ZM80.67 24V14.2H81.93V24H80.67ZM76.47 23.23C77.0767 23.23 77.52 23.0713 77.8 22.754C78.08 22.4273 78.22 21.886 78.22 21.13C78.22 20.374 78.08 19.8373 77.8 19.52C77.52 19.1933 77.0767 19.03 76.47 19.03H75.49V23.23H76.47ZM85.296 24V15.18H83.056V14.2H88.796V15.18H86.556V24H85.296ZM92.1516 24.14C91.2836 24.14 90.537 24.0467 89.9116 23.86V14.2H91.1716V18.19C91.3583 18.1527 91.587 18.12 91.8576 18.092C92.1283 18.064 92.3663 18.05 92.5716 18.05C93.4956 18.05 94.1676 18.288 94.5876 18.764C95.017 19.24 95.2316 20.0287 95.2316 21.13C95.2316 21.858 95.129 22.4413 94.9236 22.88C94.7183 23.3187 94.3916 23.6407 93.9436 23.846C93.505 24.042 92.9076 24.14 92.1516 24.14ZM92.1516 23.23C92.7956 23.23 93.2576 23.0713 93.5376 22.754C93.827 22.4273 93.9716 21.886 93.9716 21.13C93.9716 20.374 93.827 19.8373 93.5376 19.52C93.2576 19.1933 92.7956 19.03 92.1516 19.03H91.1716V23.23H92.1516ZM105.315 24.14C104.895 24.14 104.545 24 104.265 23.72C103.994 23.44 103.808 23.02 103.705 22.46L103.355 20.64C103.271 20.1827 103.112 19.8607 102.879 19.674C102.655 19.478 102.37 19.38 102.025 19.38H101.535V24H100.275V14.2H101.535V18.4H102.025C102.613 18.4 103.01 17.98 103.215 17.14L103.565 15.74C103.705 15.18 103.91 14.76 104.181 14.48C104.452 14.2 104.783 14.06 105.175 14.06C105.38 14.06 105.572 14.0833 105.749 14.13C105.926 14.1673 106.015 14.1907 106.015 14.2V14.83C105.679 14.83 105.427 14.9093 105.259 15.068C105.091 15.2173 104.97 15.4413 104.895 15.74L104.545 17.14C104.405 17.7093 104.242 18.1153 104.055 18.358C103.868 18.6007 103.612 18.7687 103.285 18.862V18.918C103.668 19.0207 103.971 19.198 104.195 19.45C104.419 19.6927 104.582 20.0893 104.685 20.64L105.035 22.46C105.091 22.7307 105.208 22.95 105.385 23.118C105.572 23.286 105.828 23.37 106.155 23.37V24C106.155 24.0093 106.066 24.0327 105.889 24.07C105.712 24.1167 105.52 24.14 105.315 24.14ZM106.507 24L108.887 14.2H110.707L113.087 24H111.827L111.197 21.48H108.397L107.767 24H106.507ZM108.607 20.5H110.987L109.825 15.6H109.769L108.607 20.5ZM115.046 24V15.18H112.806V14.2H118.546V15.18H116.306V24H115.046ZM118.264 24L120.644 14.2H122.464L124.844 24H123.584L122.954 21.48H120.154L119.524 24H118.264ZM120.364 20.5H122.744L121.582 15.6H121.526L120.364 20.5ZM125.961 24.14C125.756 24.14 125.564 24.1167 125.387 24.07C125.21 24.0327 125.121 24.0093 125.121 24V23.37C125.532 23.37 125.858 23.1927 126.101 22.838C126.344 22.4833 126.484 21.8907 126.521 21.06L126.871 14.2H131.561V24H130.301V15.18H128.089L127.781 21.06C127.725 22.1147 127.529 22.894 127.193 23.398C126.866 23.8927 126.456 24.14 125.961 24.14ZM136.255 24.14C135.592 24.14 135.042 23.9907 134.603 23.692C134.164 23.384 133.828 22.8613 133.595 22.124C133.362 21.3773 133.245 20.3693 133.245 19.1C133.245 17.8307 133.362 16.8273 133.595 16.09C133.828 15.3433 134.164 14.8207 134.603 14.522C135.042 14.214 135.592 14.06 136.255 14.06C136.918 14.06 137.468 14.214 137.907 14.522C138.346 14.8207 138.682 15.3433 138.915 16.09C139.148 16.8273 139.265 17.8307 139.265 19.1C139.265 20.3693 139.148 21.3773 138.915 22.124C138.682 22.8613 138.346 23.384 137.907 23.692C137.468 23.9907 136.918 24.14 136.255 24.14ZM136.255 23.3C137.422 23.3 138.005 21.9 138.005 19.1C138.005 16.3 137.422 14.9 136.255 14.9C135.088 14.9 134.505 16.3 134.505 19.1C134.505 21.9 135.088 23.3 136.255 23.3ZM140.949 24V14.2H145.429V15.18H142.209V24H140.949Z" fill="white"/>
</svg>
