<svg width="300" height="38" viewBox="0 0 300 38" fill="none" xmlns="http://www.w3.org/2000/svg">
<rect width="300" height="38" fill="#EE3643"/>
<mask id="mask0" mask-type="alpha" maskUnits="userSpaceOnUse" x="0" y="0" width="300" height="38">
<rect width="300" height="38" fill="#EE3643"/>
</mask>
<g mask="url(#mask0)">
<rect width="300" height="38" fill="#EE3643"/>
</g>
<path d="M64.0538 24.14C63.7178 24.14 63.3632 24.112 62.9898 24.056C62.6165 24 62.3178 23.9347 62.0938 23.86V23.23H64.0538C64.7538 23.23 65.2532 23.0853 65.5518 22.796C65.8598 22.4973 66.0138 22.012 66.0138 21.34C66.0138 20.64 65.8598 20.1407 65.5518 19.842C65.2532 19.534 64.7538 19.38 64.0538 19.38H63.0738V18.4H63.9138C64.5392 18.4 64.9965 18.26 65.2858 17.98C65.5845 17.6907 65.7338 17.2473 65.7338 16.65C65.7338 16.0807 65.5845 15.6607 65.2858 15.39C64.9965 15.11 64.5392 14.97 63.9138 14.97H62.2338V14.34C62.4485 14.2653 62.7378 14.2 63.1018 14.144C63.4658 14.088 63.7832 14.06 64.0538 14.06C65.0898 14.06 65.8365 14.27 66.2938 14.69C66.7605 15.11 66.9938 15.7633 66.9938 16.65C66.9938 17.2007 66.8912 17.6487 66.6858 17.994C66.4805 18.33 66.1632 18.596 65.7338 18.792V18.848C66.2658 18.9973 66.6532 19.2913 66.8958 19.73C67.1478 20.1687 67.2738 20.7053 67.2738 21.34C67.2738 22.0027 67.1665 22.5393 66.9518 22.95C66.7465 23.3607 66.4105 23.664 65.9438 23.86C65.4772 24.0467 64.8472 24.14 64.0538 24.14ZM68.1111 24L70.4911 14.2H72.3111L74.6911 24H73.4311L72.8011 21.48H70.0011L69.3711 24H68.1111ZM70.2111 20.5H72.5911L71.4291 15.6H71.3731L70.2111 20.5ZM78.1878 24.14C77.3198 24.14 76.5732 24.0467 75.9478 23.86V14.2H80.8478V15.18H77.2078V18.05H78.1878C78.9438 18.05 79.5458 18.1527 79.9938 18.358C80.4418 18.554 80.7638 18.876 80.9598 19.324C81.1651 19.772 81.2678 20.374 81.2678 21.13C81.2678 21.858 81.1651 22.4413 80.9598 22.88C80.7545 23.3187 80.4278 23.6407 79.9798 23.846C79.5411 24.042 78.9438 24.14 78.1878 24.14ZM78.1878 23.23C78.8318 23.23 79.2938 23.0713 79.5738 22.754C79.8631 22.4273 80.0078 21.886 80.0078 21.13C80.0078 20.374 79.8631 19.8373 79.5738 19.52C79.2938 19.1933 78.8318 19.03 78.1878 19.03H77.2078V23.23H78.1878ZM82.6711 24.14C82.4658 24.14 82.2744 24.1167 82.0971 24.07C81.9198 24.0327 81.8311 24.0093 81.8311 24V23.37C82.2418 23.37 82.5684 23.1927 82.8111 22.838C83.0538 22.4833 83.1938 21.8907 83.2311 21.06L83.5811 14.2H88.2711V24H87.0111V15.18H84.7991L84.4911 21.06C84.4351 22.1147 84.2391 22.894 83.9031 23.398C83.5764 23.8927 83.1658 24.14 82.6711 24.14ZM91.7189 24.14C91.3456 24.14 90.8789 24.0467 90.3189 23.86V23.23H91.2989C91.6909 23.23 91.9989 23.0853 92.2229 22.796C92.4563 22.5067 92.6523 21.9747 92.8109 21.2C91.7189 21.2 91.0236 20.64 90.7249 19.52L89.2549 14.2H90.5149L91.9849 19.52C92.0596 19.7627 92.1809 19.954 92.3489 20.094C92.5169 20.2247 92.7316 20.29 92.9929 20.29L94.2249 14.2H95.4849L93.9589 21.76C93.7909 22.6 93.5296 23.2067 93.1749 23.58C92.8296 23.9533 92.3443 24.14 91.7189 24.14ZM95.6293 23.02H96.3293C96.3293 23.048 96.3853 22.9313 96.4973 22.67C96.6186 22.3993 96.7306 22.054 96.8333 21.634C96.936 21.2047 97.0013 20.71 97.0293 20.15L97.3093 14.2H101.859V23.02H102.769V26.1H101.999C101.794 25.54 101.654 24.84 101.579 24H96.8193C96.754 24.84 96.614 25.54 96.3993 26.1H95.6293V23.02ZM100.599 23.02V15.18H98.5273L98.2893 20.15C98.2613 20.71 98.196 21.2047 98.0933 21.634C97.9906 22.054 97.8786 22.3993 97.7573 22.67C97.6453 22.9313 97.5893 23.048 97.5893 23.02H100.599ZM104.098 24V14.2H105.358V21.48H105.428L108.228 14.2H109.698V24H108.438V16.72H108.368L105.498 24H104.098ZM111.519 24.14C111.313 24.14 111.122 24.1167 110.945 24.07C110.767 24.0327 110.679 24.0093 110.679 24V23.37C111.089 23.37 111.416 23.1927 111.659 22.838C111.901 22.4833 112.041 21.8907 112.079 21.06L112.429 14.2H117.119V24H115.859V15.18H113.647L113.339 21.06C113.283 22.1147 113.087 22.894 112.751 23.398C112.424 23.8927 112.013 24.14 111.519 24.14ZM119.083 24V14.2H120.343V21.48H120.413L123.213 14.2H124.683V24H123.423V16.72H123.353L120.483 24H119.083ZM129.443 24.14C128.752 24.14 128.183 23.9907 127.735 23.692C127.287 23.384 126.946 22.8613 126.713 22.124C126.48 21.3867 126.363 20.3787 126.363 19.1C126.363 17.8307 126.48 16.8273 126.713 16.09C126.946 15.3527 127.273 14.83 127.693 14.522C128.122 14.214 128.659 14.06 129.303 14.06C129.695 14.06 130.087 14.088 130.479 14.144C130.871 14.2 131.179 14.2653 131.403 14.34V14.97H129.583C128.958 14.97 128.472 15.2733 128.127 15.88C127.791 16.4867 127.623 17.56 127.623 19.1C127.623 20.1547 127.707 20.9853 127.875 21.592C128.043 22.1987 128.281 22.6233 128.589 22.866C128.897 23.1087 129.275 23.23 129.723 23.23H131.543V23.86C131.319 23.9347 131.011 24 130.619 24.056C130.236 24.112 129.844 24.14 129.443 24.14ZM134.967 24.14C134.099 24.14 133.352 24.0467 132.727 23.86V14.2H133.987V18.19C134.174 18.1527 134.402 18.12 134.673 18.092C134.944 18.064 135.182 18.05 135.387 18.05C136.311 18.05 136.983 18.288 137.403 18.764C137.832 19.24 138.047 20.0287 138.047 21.13C138.047 21.858 137.944 22.4413 137.739 22.88C137.534 23.3187 137.207 23.6407 136.759 23.846C136.32 24.042 135.723 24.14 134.967 24.14ZM134.967 23.23C135.611 23.23 136.073 23.0713 136.353 22.754C136.642 22.4273 136.787 21.886 136.787 21.13C136.787 20.374 136.642 19.8373 136.353 19.52C136.073 19.1933 135.611 19.03 134.967 19.03H133.987V23.23H134.967ZM140.08 21.41C140.08 20.8313 140.174 20.3553 140.36 19.982C140.556 19.5993 140.832 19.198 141.186 18.778C141.504 18.386 141.737 18.05 141.886 17.77C142.036 17.4807 142.11 17.1307 142.11 16.72C142.11 16.132 141.975 15.6933 141.704 15.404C141.443 15.1147 141.065 14.97 140.57 14.97H138.75V14.34C138.974 14.2653 139.282 14.2 139.674 14.144C140.066 14.088 140.458 14.06 140.85 14.06C141.7 14.06 142.33 14.2793 142.74 14.718C143.16 15.1473 143.37 15.8147 143.37 16.72C143.37 17.1027 143.314 17.4433 143.202 17.742C143.1 18.0407 142.974 18.2973 142.824 18.512C142.675 18.7267 142.474 18.9787 142.222 19.268C141.868 19.6787 141.606 20.0287 141.438 20.318C141.28 20.6073 141.2 20.9713 141.2 21.41H140.08ZM140.01 24.07V22.53H141.27V24.07H140.01ZM148.272 24V14.2H149.532V18.54H152.472V14.2H153.732V24H152.472V19.52H149.532V24H148.272ZM154.996 24L157.376 14.2H159.196L161.576 24H160.316L159.686 21.48H156.886L156.256 24H154.996ZM157.096 20.5H159.476L158.314 15.6H158.258L157.096 20.5ZM162.833 24V14.2H168.293V24H167.033V15.18H164.093V24H162.833ZM170.256 24V14.2H171.516V21.48H171.586L174.386 14.2H175.856V24H174.596V16.72H174.526L171.656 24H170.256ZM177.817 24V14.2H179.077V23.02H181.457V14.2H182.717V23.02H185.097V14.2H186.357V24H177.817ZM188.317 24V14.2H189.577V21.48H189.647L192.447 14.2H193.917V24H192.657V16.72H192.587L189.717 24H188.317ZM197.277 24V15.18H195.037V14.2H200.777V15.18H198.537V24H197.277ZM201.893 24V14.2H206.653V15.18H203.153V18.4H206.233V19.38H203.153V23.02H206.653V24H201.893ZM211.696 24V14.2H212.956V18.54H215.896V14.2H217.156V24H215.896V19.52H212.956V24H211.696ZM218.42 24L220.8 14.2H222.62L225 24H223.74L223.11 21.48H220.31L219.68 24H218.42ZM220.52 20.5H222.9L221.738 15.6H221.682L220.52 20.5ZM226.046 24L226.606 14.2H228.146L230.428 20.92H230.484L232.766 14.2H234.306L234.866 24H233.606L233.186 16.72H233.116L231.086 22.74H229.826L227.796 16.72H227.726L227.306 24H226.046ZM236.662 21.41L236.48 14.2H238.02L237.782 21.41H236.662ZM236.592 24.07V22.53H237.852V24.07H236.592Z" fill="white"/>
</svg>
