<svg width="135" height="38" viewBox="0 0 135 38" fill="none" xmlns="http://www.w3.org/2000/svg">
<rect opacity="0.3" width="135" height="38" fill="white"/>
<path d="M27.1158 23V13.2H28.3758V17.54H31.3158V13.2H32.5758V23H31.3158V18.52H28.3758V23H27.1158ZM33.8396 23L36.2196 13.2H38.0396L40.4196 23H39.1596L38.5296 20.48H35.7296L35.0996 23H33.8396ZM35.9396 19.5H38.3196L37.1576 14.6H37.1016L35.9396 19.5ZM47.4163 23.14C46.5483 23.14 45.8016 23.0467 45.1763 22.86V13.34C45.8016 13.1533 46.5483 13.06 47.4163 13.06C48.387 13.06 49.0963 13.27 49.5443 13.69C49.9923 14.11 50.2163 14.7633 50.2163 15.65C50.2163 16.6207 49.843 17.3113 49.0963 17.722V17.778C50.123 18.0767 50.6363 18.9307 50.6363 20.34C50.6363 21.0027 50.529 21.5393 50.3143 21.95C50.109 22.3607 49.773 22.664 49.3063 22.86C48.8396 23.0467 48.2096 23.14 47.4163 23.14ZM47.2763 17.4C47.8363 17.4 48.2563 17.2553 48.5363 16.966C48.8163 16.6767 48.9563 16.238 48.9563 15.65C48.9563 14.53 48.3963 13.97 47.2763 13.97H46.4363V17.4H47.2763ZM47.4163 22.23C48.1163 22.23 48.6156 22.0853 48.9143 21.796C49.2223 21.4973 49.3763 21.012 49.3763 20.34C49.3763 19.612 49.2223 19.094 48.9143 18.786C48.6156 18.4687 48.1163 18.31 47.4163 18.31H46.4363V22.23H47.4163ZM54.9763 23.14C54.2856 23.14 53.7163 22.9907 53.2683 22.692C52.8203 22.384 52.4796 21.8613 52.2463 21.124C52.013 20.3867 51.8963 19.3787 51.8963 18.1C51.8963 16.8307 52.013 15.8273 52.2463 15.09C52.4796 14.3527 52.8063 13.83 53.2263 13.522C53.6556 13.214 54.1923 13.06 54.8363 13.06C55.2283 13.06 55.6203 13.088 56.0123 13.144C56.4043 13.2 56.7123 13.2653 56.9363 13.34V13.97H55.1163C54.491 13.97 54.0056 14.2733 53.6603 14.88C53.3243 15.4867 53.1563 16.56 53.1563 18.1C53.1563 19.1547 53.2403 19.9853 53.4083 20.592C53.5763 21.1987 53.8143 21.6233 54.1223 21.866C54.4303 22.1087 54.8083 22.23 55.2563 22.23H57.0763V22.86C56.8523 22.9347 56.5443 23 56.1523 23.056C55.7696 23.112 55.3776 23.14 54.9763 23.14ZM58.2603 23V13.2H63.0203V14.18H59.5203V17.4H62.6003V18.38H59.5203V22.02H63.0203V23H58.2603ZM70.863 23.14C70.1723 23.14 69.603 22.9907 69.155 22.692C68.707 22.384 68.3663 21.8613 68.133 21.124C67.8997 20.3867 67.783 19.3787 67.783 18.1C67.783 16.8307 67.8997 15.8273 68.133 15.09C68.3663 14.3527 68.693 13.83 69.113 13.522C69.5423 13.214 70.079 13.06 70.723 13.06C71.115 13.06 71.507 13.088 71.899 13.144C72.291 13.2 72.599 13.2653 72.823 13.34V13.97H71.003C70.3777 13.97 69.8923 14.2733 69.547 14.88C69.211 15.4867 69.043 16.56 69.043 18.1C69.043 19.1547 69.127 19.9853 69.295 20.592C69.463 21.1987 69.701 21.6233 70.009 21.866C70.317 22.1087 70.695 22.23 71.143 22.23H72.963V22.86C72.739 22.9347 72.431 23 72.039 23.056C71.6563 23.112 71.2643 23.14 70.863 23.14ZM74.007 23.14C73.8017 23.14 73.6103 23.1167 73.433 23.07C73.2557 23.0327 73.167 23.0093 73.167 23V22.37C73.5777 22.37 73.9043 22.1927 74.147 21.838C74.3897 21.4833 74.5297 20.8907 74.567 20.06L74.917 13.2H79.607V23H78.347V14.18H76.135L75.827 20.06C75.771 21.1147 75.575 21.894 75.239 22.398C74.9123 22.8927 74.5017 23.14 74.007 23.14ZM83.0548 23.14C82.6815 23.14 82.2148 23.0467 81.6548 22.86V22.23H82.6348C83.0268 22.23 83.3348 22.0853 83.5588 21.796C83.7921 21.5067 83.9881 20.9747 84.1468 20.2C83.0548 20.2 82.3595 19.64 82.0608 18.52L80.5908 13.2H81.8508L83.3208 18.52C83.3955 18.7627 83.5168 18.954 83.6848 19.094C83.8528 19.2247 84.0675 19.29 84.3288 19.29L85.5608 13.2H86.8208L85.2948 20.76C85.1268 21.6 84.8655 22.2067 84.5108 22.58C84.1655 22.9533 83.6801 23.14 83.0548 23.14ZM91.9286 19.22C91.462 19.3133 90.9486 19.36 90.3886 19.36C89.5113 19.36 88.858 19.1407 88.4286 18.702C88.0086 18.254 87.7986 17.5633 87.7986 16.63V13.2H89.0586V16.63C89.0586 17.2273 89.208 17.6707 89.5066 17.96C89.8053 18.24 90.286 18.38 90.9486 18.38H91.9286V13.2H93.1886V23H91.9286V19.22ZM94.447 23L96.827 13.2H98.647L101.027 23H99.767L99.137 20.48H96.337L95.707 23H94.447ZM96.547 19.5H98.927L97.765 14.6H97.709L96.547 19.5ZM102.284 23V13.2H103.544V20.48H103.614L106.414 13.2H107.884V23H106.624V15.72H106.554L103.684 23H102.284Z" fill="white"/>
</svg>
