<svg width="192" height="38" viewBox="0 0 192 38" fill="none" xmlns="http://www.w3.org/2000/svg">
<rect width="192" height="38" fill="#EE3643"/>
<mask id="mask0" mask-type="alpha" maskUnits="userSpaceOnUse" x="0" y="0" width="192" height="38">
<rect width="192" height="38" fill="#EE3643"/>
</mask>
<g mask="url(#mask0)">
<rect width="192" height="38" fill="#EE3643"/>
</g>
<path d="M27.5179 24.14C26.6499 24.14 25.9032 24.0467 25.2779 23.86V14.34C25.9032 14.1533 26.6499 14.06 27.5179 14.06C28.4886 14.06 29.1979 14.27 29.6459 14.69C30.0939 15.11 30.3179 15.7633 30.3179 16.65C30.3179 17.6207 29.9446 18.3113 29.1979 18.722V18.778C30.2246 19.0767 30.7379 19.9307 30.7379 21.34C30.7379 22.0027 30.6306 22.5393 30.4159 22.95C30.2106 23.3607 29.8746 23.664 29.4079 23.86C28.9412 24.0467 28.3112 24.14 27.5179 24.14ZM27.3779 18.4C27.9379 18.4 28.3579 18.2553 28.6379 17.966C28.9179 17.6767 29.0579 17.238 29.0579 16.65C29.0579 15.53 28.4979 14.97 27.3779 14.97H26.5379V18.4H27.3779ZM27.5179 23.23C28.2179 23.23 28.7172 23.0853 29.0159 22.796C29.3239 22.4973 29.4779 22.012 29.4779 21.34C29.4779 20.612 29.3239 20.094 29.0159 19.786C28.7172 19.4687 28.2179 19.31 27.5179 19.31H26.5379V23.23H27.5179ZM35.0779 24.14C34.3872 24.14 33.8179 23.9907 33.3699 23.692C32.9219 23.384 32.5812 22.8613 32.3479 22.124C32.1146 21.3867 31.9979 20.3787 31.9979 19.1C31.9979 17.8307 32.1146 16.8273 32.3479 16.09C32.5812 15.3527 32.9079 14.83 33.3279 14.522C33.7572 14.214 34.2939 14.06 34.9379 14.06C35.3299 14.06 35.7219 14.088 36.1139 14.144C36.5059 14.2 36.8139 14.2653 37.0379 14.34V14.97H35.2179C34.5926 14.97 34.1072 15.2733 33.7619 15.88C33.4259 16.4867 33.2579 17.56 33.2579 19.1C33.2579 20.1547 33.3419 20.9853 33.5099 21.592C33.6779 22.1987 33.9159 22.6233 34.2239 22.866C34.5319 23.1087 34.9099 23.23 35.3579 23.23H37.1779V23.86C36.9539 23.9347 36.6459 24 36.2539 24.056C35.8712 24.112 35.4792 24.14 35.0779 24.14ZM38.3619 24V14.2H43.1219V15.18H39.6219V18.4H42.7019V19.38H39.6219V23.02H43.1219V24H38.3619ZM48.1646 24V14.2H53.6246V24H52.3646V15.18H49.4246V24H48.1646ZM58.3184 24.14C57.6558 24.14 57.1051 23.9907 56.6664 23.692C56.2278 23.384 55.8918 22.8613 55.6584 22.124C55.4251 21.3773 55.3084 20.3693 55.3084 19.1C55.3084 17.8307 55.4251 16.8273 55.6584 16.09C55.8918 15.3433 56.2278 14.8207 56.6664 14.522C57.1051 14.214 57.6558 14.06 58.3184 14.06C58.9811 14.06 59.5318 14.214 59.9704 14.522C60.4091 14.8207 60.7451 15.3433 60.9784 16.09C61.2118 16.8273 61.3284 17.8307 61.3284 19.1C61.3284 20.3693 61.2118 21.3773 60.9784 22.124C60.7451 22.8613 60.4091 23.384 59.9704 23.692C59.5318 23.9907 58.9811 24.14 58.3184 24.14ZM58.3184 23.3C59.4851 23.3 60.0684 21.9 60.0684 19.1C60.0684 16.3 59.4851 14.9 58.3184 14.9C57.1518 14.9 56.5684 16.3 56.5684 19.1C56.5684 21.9 57.1518 23.3 58.3184 23.3ZM63.0122 24V14.2H68.4722V24H67.2122V15.18H64.2722V24H63.0122ZM71.9201 24.14C71.5467 24.14 71.0801 24.0467 70.5201 23.86V23.23H71.5001C71.8921 23.23 72.2001 23.0853 72.4241 22.796C72.6574 22.5067 72.8534 21.9747 73.0121 21.2C71.9201 21.2 71.2247 20.64 70.9261 19.52L69.4561 14.2H70.7161L72.1861 19.52C72.2607 19.7627 72.3821 19.954 72.5501 20.094C72.7181 20.2247 72.9327 20.29 73.1941 20.29L74.4261 14.2H75.6861L74.1601 21.76C73.9921 22.6 73.7307 23.2067 73.3761 23.58C73.0307 23.9533 72.5454 24.14 71.9201 24.14ZM76.5304 24.14C76.3251 24.14 76.1338 24.1167 75.9564 24.07C75.7791 24.0327 75.6904 24.0093 75.6904 24V23.37C76.1011 23.37 76.4278 23.1927 76.6704 22.838C76.9131 22.4833 77.0531 21.8907 77.0904 21.06L77.4404 14.2H82.1304V24H80.8704V15.18H78.6584L78.3504 21.06C78.2944 22.1147 78.0984 22.894 77.7624 23.398C77.4358 23.8927 77.0251 24.14 76.5304 24.14ZM84.0943 24.14C83.9169 24.14 83.7443 24.1213 83.5763 24.084C83.4083 24.0467 83.3009 24.0187 83.2543 24V23.37C83.5903 23.37 83.8423 23.2953 84.0103 23.146C84.1783 22.9873 84.2996 22.7587 84.3743 22.46L84.6543 21.27C84.8596 20.3927 85.2096 19.8747 85.7043 19.716V19.66C85.3776 19.6133 85.0696 19.4827 84.7803 19.268C84.5003 19.0533 84.2669 18.7547 84.0803 18.372C83.9029 17.9893 83.8143 17.532 83.8143 17C83.8143 16.2907 83.9169 15.726 84.1223 15.306C84.3276 14.8767 84.6496 14.564 85.0883 14.368C85.5363 14.1627 86.1383 14.06 86.8943 14.06C87.7623 14.06 88.5089 14.1533 89.1343 14.34V24H87.8743V20.01H87.3143C86.6329 20.01 86.1896 20.43 85.9843 21.27L85.7043 22.46C85.5643 23.02 85.3589 23.44 85.0883 23.72C84.8176 24 84.4863 24.14 84.0943 24.14ZM87.8743 19.03V14.97H86.8943C86.2596 14.97 85.7976 15.1287 85.5083 15.446C85.2189 15.754 85.0743 16.272 85.0743 17C85.0743 17.728 85.2189 18.2507 85.5083 18.568C85.7976 18.876 86.2596 19.03 86.8943 19.03H87.8743ZM91.0943 14.34C91.7196 14.1533 92.4663 14.06 93.3343 14.06C94.0996 14.06 94.7016 14.1673 95.1403 14.382C95.5883 14.5967 95.9103 14.956 96.1063 15.46C96.3116 15.964 96.4143 16.664 96.4143 17.56C96.4143 18.4653 96.3209 19.1793 96.1343 19.702C95.9476 20.2153 95.6583 20.584 95.2663 20.808C94.8836 21.0227 94.3796 21.13 93.7543 21.13C93.5489 21.13 93.3109 21.116 93.0403 21.088C92.7696 21.06 92.5409 21.0273 92.3543 20.99V24H91.0943V14.34ZM93.3343 20.15C93.7729 20.15 94.1229 20.0753 94.3843 19.926C94.6456 19.7673 94.8369 19.5013 94.9583 19.128C95.0889 18.7547 95.1543 18.232 95.1543 17.56C95.1543 16.888 95.0889 16.3653 94.9583 15.992C94.8369 15.6187 94.6456 15.3573 94.3843 15.208C94.1229 15.0493 93.7729 14.97 93.3343 14.97H92.3543V20.15H93.3343ZM97.9575 24V14.2H99.2175V18.54H102.158V14.2H103.418V24H102.158V19.52H99.2175V24H97.9575ZM107.621 24.14C106.753 24.14 106.007 24.0467 105.381 23.86V14.2H106.641V18.19C106.828 18.1527 107.057 18.12 107.327 18.092C107.598 18.064 107.836 18.05 108.041 18.05C108.937 18.05 109.591 18.288 110.001 18.764C110.421 19.24 110.631 20.0287 110.631 21.13C110.631 21.858 110.529 22.4413 110.323 22.88C110.127 23.3187 109.81 23.6407 109.371 23.846C108.933 24.042 108.349 24.14 107.621 24.14ZM111.821 24V14.2H113.081V24H111.821ZM107.621 23.23C108.228 23.23 108.671 23.0713 108.951 22.754C109.231 22.4273 109.371 21.886 109.371 21.13C109.371 20.374 109.231 19.8373 108.951 19.52C108.671 19.1933 108.228 19.03 107.621 19.03H106.641V23.23H107.621ZM115.047 24V14.2H119.807V15.18H116.307V18.4H119.387V19.38H116.307V23.02H119.807V24H115.047ZM126.25 24V15.18H124.01V14.2H129.75V15.18H127.51V24H126.25ZM133.322 24.14C132.66 24.14 132.109 23.9907 131.67 23.692C131.232 23.384 130.896 22.8613 130.662 22.124C130.429 21.3773 130.312 20.3693 130.312 19.1C130.312 17.8307 130.429 16.8273 130.662 16.09C130.896 15.3433 131.232 14.8207 131.67 14.522C132.109 14.214 132.66 14.06 133.322 14.06C133.985 14.06 134.536 14.214 134.974 14.522C135.413 14.8207 135.749 15.3433 135.982 16.09C136.216 16.8273 136.332 17.8307 136.332 19.1C136.332 20.3693 136.216 21.3773 135.982 22.124C135.749 22.8613 135.413 23.384 134.974 23.692C134.536 23.9907 133.985 24.14 133.322 24.14ZM133.322 23.3C134.489 23.3 135.072 21.9 135.072 19.1C135.072 16.3 134.489 14.9 133.322 14.9C132.156 14.9 131.572 16.3 131.572 19.1C131.572 21.9 132.156 23.3 133.322 23.3ZM140.256 24.14C139.388 24.14 138.641 24.0467 138.016 23.86V14.34C138.641 14.1533 139.388 14.06 140.256 14.06C141.227 14.06 141.936 14.27 142.384 14.69C142.832 15.11 143.056 15.7633 143.056 16.65C143.056 17.6207 142.683 18.3113 141.936 18.722V18.778C142.963 19.0767 143.476 19.9307 143.476 21.34C143.476 22.0027 143.369 22.5393 143.154 22.95C142.949 23.3607 142.613 23.664 142.146 23.86C141.679 24.0467 141.049 24.14 140.256 24.14ZM140.116 18.4C140.676 18.4 141.096 18.2553 141.376 17.966C141.656 17.6767 141.796 17.238 141.796 16.65C141.796 15.53 141.236 14.97 140.116 14.97H139.276V18.4H140.116ZM140.256 23.23C140.956 23.23 141.455 23.0853 141.754 22.796C142.062 22.4973 142.216 22.012 142.216 21.34C142.216 20.612 142.062 20.094 141.754 19.786C141.455 19.4687 140.956 19.31 140.256 19.31H139.276V23.23H140.256ZM144.316 24L146.696 14.2H148.516L150.896 24H149.636L149.006 21.48H146.206L145.576 24H144.316ZM146.416 20.5H148.796L147.634 15.6H147.578L146.416 20.5ZM152.153 14.34C152.778 14.1533 153.525 14.06 154.393 14.06C155.158 14.06 155.76 14.1673 156.199 14.382C156.647 14.5967 156.969 14.956 157.165 15.46C157.37 15.964 157.473 16.664 157.473 17.56C157.473 18.4653 157.379 19.1793 157.193 19.702C157.006 20.2153 156.717 20.584 156.325 20.808C155.942 21.0227 155.438 21.13 154.813 21.13C154.607 21.13 154.369 21.116 154.099 21.088C153.828 21.06 153.599 21.0273 153.413 20.99V24H152.153V14.34ZM154.393 20.15C154.831 20.15 155.181 20.0753 155.443 19.926C155.704 19.7673 155.895 19.5013 156.017 19.128C156.147 18.7547 156.213 18.232 156.213 17.56C156.213 16.888 156.147 16.3653 156.017 15.992C155.895 15.6187 155.704 15.3573 155.443 15.208C155.181 15.0493 154.831 14.97 154.393 14.97H153.413V20.15H154.393ZM161.256 24.14C160.388 24.14 159.641 24.0467 159.016 23.86V14.2H160.276V18.19C160.463 18.1527 160.691 18.12 160.962 18.092C161.233 18.064 161.471 18.05 161.676 18.05C162.572 18.05 163.225 18.288 163.636 18.764C164.056 19.24 164.266 20.0287 164.266 21.13C164.266 21.858 164.163 22.4413 163.958 22.88C163.762 23.3187 163.445 23.6407 163.006 23.846C162.567 24.042 161.984 24.14 161.256 24.14ZM165.456 24V14.2H166.716V24H165.456ZM161.256 23.23C161.863 23.23 162.306 23.0713 162.586 22.754C162.866 22.4273 163.006 21.886 163.006 21.13C163.006 20.374 162.866 19.8373 162.586 19.52C162.306 19.1933 161.863 19.03 161.256 19.03H160.276V23.23H161.256Z" fill="white"/>
</svg>
