<svg width="135" height="38" viewBox="0 0 135 38" fill="none" xmlns="http://www.w3.org/2000/svg">
<rect opacity="0.3" width="135" height="38" fill="white"/>
<path d="M23.314 23V13.2H24.574V17.54H27.514V13.2H28.774V23H27.514V18.52H24.574V23H23.314ZM30.0378 23L32.4178 13.2H34.2378L36.6178 23H35.3578L34.7278 20.48H31.9278L31.2978 23H30.0378ZM32.1378 19.5H34.5178L33.3558 14.6H33.2998L32.1378 19.5ZM42.7045 23.14C42.3125 23.14 41.9205 23.112 41.5285 23.056C41.1365 23 40.8285 22.9347 40.6045 22.86V22.23H42.4245C43.1245 22.23 43.6239 22.0853 43.9225 21.796C44.2305 21.4973 44.3845 21.012 44.3845 20.34C44.3845 19.64 44.2305 19.1407 43.9225 18.842C43.6239 18.534 43.1245 18.38 42.4245 18.38H41.4445V17.4H42.2845C42.9099 17.4 43.3672 17.26 43.6565 16.98C43.9552 16.6907 44.1045 16.2473 44.1045 15.65C44.1045 15.0993 43.9692 14.684 43.6985 14.404C43.4372 14.1147 43.0592 13.97 42.5645 13.97H40.7445V13.34C40.9685 13.2653 41.2765 13.2 41.6685 13.144C42.0605 13.088 42.4525 13.06 42.8445 13.06C43.6845 13.06 44.3145 13.2747 44.7345 13.704C45.1545 14.1333 45.3645 14.782 45.3645 15.65C45.3645 16.1727 45.2572 16.6067 45.0425 16.952C44.8372 17.2973 44.5245 17.5773 44.1045 17.792V17.848C44.6272 17.9787 45.0145 18.2727 45.2665 18.73C45.5185 19.1873 45.6445 19.724 45.6445 20.34C45.6445 21.3293 45.4159 22.0433 44.9585 22.482C44.5012 22.9207 43.7499 23.14 42.7045 23.14ZM48.9351 23.14C48.5431 23.14 48.1511 23.112 47.7591 23.056C47.3671 23 47.0591 22.9347 46.8351 22.86V22.23H48.6551C49.3551 22.23 49.8544 22.076 50.1531 21.768C50.4611 21.4507 50.6151 20.928 50.6151 20.2C50.6151 19.472 50.4611 18.954 50.1531 18.646C49.8544 18.3287 49.3551 18.17 48.6551 18.17H47.0451V13.2H51.5951V14.11H48.3051V17.26H48.9351C49.9898 17.26 50.7411 17.4887 51.1891 17.946C51.6464 18.394 51.8751 19.1453 51.8751 20.2C51.8751 21.2453 51.6464 21.9967 51.1891 22.454C50.7411 22.9113 49.9898 23.14 48.9351 23.14ZM56.0095 23.14C55.3935 23.14 54.8755 22.986 54.4555 22.678C54.0355 22.37 53.7088 21.8473 53.4755 21.11C53.2515 20.3727 53.1395 19.3693 53.1395 18.1C53.1395 16.8307 53.2515 15.8273 53.4755 15.09C53.7088 14.3527 54.0355 13.83 54.4555 13.522C54.8755 13.214 55.3935 13.06 56.0095 13.06C56.6255 13.06 57.1435 13.214 57.5635 13.522C57.9835 13.83 58.3055 14.3527 58.5295 15.09C58.7628 15.8273 58.8795 16.8307 58.8795 18.1C58.8795 19.3693 58.7628 20.3727 58.5295 21.11C58.3055 21.8473 57.9835 22.37 57.5635 22.678C57.1435 22.986 56.6255 23.14 56.0095 23.14ZM56.0095 22.3C56.4668 22.3 56.8495 21.9827 57.1575 21.348C57.4655 20.7133 57.6195 19.6307 57.6195 18.1C57.6195 16.5693 57.4655 15.4867 57.1575 14.852C56.8495 14.2173 56.4668 13.9 56.0095 13.9C55.5521 13.9 55.1695 14.2173 54.8615 14.852C54.5535 15.4867 54.3995 16.5693 54.3995 18.1C54.3995 19.6307 54.5535 20.7133 54.8615 21.348C55.1695 21.9827 55.5521 22.3 56.0095 22.3ZM65.4562 23V14.18H63.2162V13.2H68.9562V14.18H66.7162V23H65.4562ZM72.5284 23.14C71.8657 23.14 71.315 22.9907 70.8764 22.692C70.4377 22.384 70.1017 21.8613 69.8684 21.124C69.635 20.3773 69.5184 19.3693 69.5184 18.1C69.5184 16.8307 69.635 15.8273 69.8684 15.09C70.1017 14.3433 70.4377 13.8207 70.8764 13.522C71.315 13.214 71.8657 13.06 72.5284 13.06C73.191 13.06 73.7417 13.214 74.1804 13.522C74.619 13.8207 74.955 14.3433 75.1884 15.09C75.4217 15.8273 75.5384 16.8307 75.5384 18.1C75.5384 19.3693 75.4217 20.3773 75.1884 21.124C74.955 21.8613 74.619 22.384 74.1804 22.692C73.7417 22.9907 73.191 23.14 72.5284 23.14ZM72.5284 22.3C73.695 22.3 74.2784 20.9 74.2784 18.1C74.2784 15.3 73.695 13.9 72.5284 13.9C71.3617 13.9 70.7784 15.3 70.7784 18.1C70.7784 20.9 71.3617 22.3 72.5284 22.3ZM79.4622 23.14C78.5942 23.14 77.8475 23.0467 77.2222 22.86V13.34C77.8475 13.1533 78.5942 13.06 79.4622 13.06C80.4328 13.06 81.1422 13.27 81.5902 13.69C82.0382 14.11 82.2622 14.7633 82.2622 15.65C82.2622 16.6207 81.8888 17.3113 81.1422 17.722V17.778C82.1688 18.0767 82.6822 18.9307 82.6822 20.34C82.6822 21.0027 82.5748 21.5393 82.3602 21.95C82.1548 22.3607 81.8188 22.664 81.3522 22.86C80.8855 23.0467 80.2555 23.14 79.4622 23.14ZM79.3222 17.4C79.8822 17.4 80.3022 17.2553 80.5822 16.966C80.8622 16.6767 81.0022 16.238 81.0022 15.65C81.0022 14.53 80.4422 13.97 79.3222 13.97H78.4822V17.4H79.3222ZM79.4622 22.23C80.1622 22.23 80.6615 22.0853 80.9602 21.796C81.2682 21.4973 81.4222 21.012 81.4222 20.34C81.4222 19.612 81.2682 19.094 80.9602 18.786C80.6615 18.4687 80.1622 18.31 79.4622 18.31H78.4822V22.23H79.4622ZM83.5222 23L85.9022 13.2H87.7222L90.1022 23H88.8422L88.2122 20.48H85.4122L84.7822 23H83.5222ZM85.6222 19.5H88.0022L86.8402 14.6H86.7842L85.6222 19.5ZM91.3589 13.34C91.9842 13.1533 92.7309 13.06 93.5989 13.06C94.3642 13.06 94.9662 13.1673 95.4049 13.382C95.8529 13.5967 96.1749 13.956 96.3709 14.46C96.5762 14.964 96.6789 15.664 96.6789 16.56C96.6789 17.4653 96.5856 18.1793 96.3989 18.702C96.2122 19.2153 95.9229 19.584 95.5309 19.808C95.1482 20.0227 94.6442 20.13 94.0189 20.13C93.8136 20.13 93.5756 20.116 93.3049 20.088C93.0342 20.06 92.8056 20.0273 92.6189 19.99V23H91.3589V13.34ZM93.5989 19.15C94.0376 19.15 94.3876 19.0753 94.6489 18.926C94.9102 18.7673 95.1016 18.5013 95.2229 18.128C95.3536 17.7547 95.4189 17.232 95.4189 16.56C95.4189 15.888 95.3536 15.3653 95.2229 14.992C95.1016 14.6187 94.9102 14.3573 94.6489 14.208C94.3876 14.0493 94.0376 13.97 93.5989 13.97H92.6189V19.15H93.5989ZM100.952 23.14C100.29 23.14 99.7388 22.9907 99.3002 22.692C98.8615 22.384 98.5255 21.8613 98.2922 21.124C98.0588 20.3773 97.9422 19.3693 97.9422 18.1C97.9422 16.8307 98.0588 15.8273 98.2922 15.09C98.5255 14.3433 98.8615 13.8207 99.3002 13.522C99.7388 13.214 100.29 13.06 100.952 13.06C101.615 13.06 102.166 13.214 102.604 13.522C103.043 13.8207 103.379 14.3433 103.612 15.09C103.846 15.8273 103.962 16.8307 103.962 18.1C103.962 19.3693 103.846 20.3773 103.612 21.124C103.379 21.8613 103.043 22.384 102.604 22.692C102.166 22.9907 101.615 23.14 100.952 23.14ZM100.952 22.3C102.119 22.3 102.702 20.9 102.702 18.1C102.702 15.3 102.119 13.9 100.952 13.9C99.7855 13.9 99.2022 15.3 99.2022 18.1C99.2022 20.9 99.7855 22.3 100.952 22.3ZM107.886 23.14C107.018 23.14 106.271 23.0467 105.646 22.86V13.34C106.271 13.1533 107.018 13.06 107.886 13.06C108.857 13.06 109.566 13.27 110.014 13.69C110.462 14.11 110.686 14.7633 110.686 15.65C110.686 16.6207 110.313 17.3113 109.566 17.722V17.778C110.593 18.0767 111.106 18.9307 111.106 20.34C111.106 21.0027 110.999 21.5393 110.784 21.95C110.579 22.3607 110.243 22.664 109.776 22.86C109.309 23.0467 108.679 23.14 107.886 23.14ZM107.746 17.4C108.306 17.4 108.726 17.2553 109.006 16.966C109.286 16.6767 109.426 16.238 109.426 15.65C109.426 14.53 108.866 13.97 107.746 13.97H106.906V17.4H107.746ZM107.886 22.23C108.586 22.23 109.085 22.0853 109.384 21.796C109.692 21.4973 109.846 21.012 109.846 20.34C109.846 19.612 109.692 19.094 109.384 18.786C109.085 18.4687 108.586 18.31 107.886 18.31H106.906V22.23H107.886Z" fill="white"/>
</svg>
