<svg width="135" height="38" viewBox="0 0 135 38" fill="none" xmlns="http://www.w3.org/2000/svg">
<rect opacity="0.3" width="135" height="38" fill="white"/>
<path d="M39.5198 23.14C38.6518 23.14 37.9052 23.0467 37.2798 22.86V13.2H42.1798V14.18H38.5398V17.05H39.5198C40.2758 17.05 40.8778 17.1527 41.3258 17.358C41.7738 17.554 42.0958 17.876 42.2918 18.324C42.4972 18.772 42.5998 19.374 42.5998 20.13C42.5998 20.858 42.4972 21.4413 42.2918 21.88C42.0865 22.3187 41.7598 22.6407 41.3118 22.846C40.8732 23.042 40.2758 23.14 39.5198 23.14ZM39.5198 22.23C40.1638 22.23 40.6258 22.0713 40.9058 21.754C41.1952 21.4273 41.3398 20.886 41.3398 20.13C41.3398 19.374 41.1952 18.8373 40.9058 18.52C40.6258 18.1933 40.1638 18.03 39.5198 18.03H38.5398V22.23H39.5198ZM44.1431 23V13.2H48.9031V14.18H45.4031V17.4H48.4831V18.38H45.4031V22.02H48.9031V23H44.1431ZM53.2458 23.14C52.5552 23.14 51.9858 22.9907 51.5378 22.692C51.0898 22.384 50.7492 21.8613 50.5158 21.124C50.2825 20.3867 50.1658 19.3787 50.1658 18.1C50.1658 16.8307 50.2825 15.8273 50.5158 15.09C50.7492 14.3527 51.0758 13.83 51.4958 13.522C51.9252 13.214 52.4618 13.06 53.1058 13.06C53.4978 13.06 53.8898 13.088 54.2818 13.144C54.6738 13.2 54.9818 13.2653 55.2058 13.34V13.97H53.3858C52.7605 13.97 52.2752 14.2733 51.9298 14.88C51.5938 15.4867 51.4258 16.56 51.4258 18.1C51.4258 19.1547 51.5098 19.9853 51.6778 20.592C51.8458 21.1987 52.0838 21.6233 52.3918 21.866C52.6998 22.1087 53.0778 22.23 53.5258 22.23H55.3458V22.86C55.1218 22.9347 54.8138 23 54.4218 23.056C54.0392 23.112 53.6472 23.14 53.2458 23.14ZM56.5298 23V13.2H61.9898V23H60.7298V14.18H57.7898V23H56.5298ZM63.8136 23.14C63.6083 23.14 63.417 23.1167 63.2396 23.07C63.0623 23.0327 62.9736 23.0093 62.9736 23V22.37C63.3843 22.37 63.711 22.1927 63.9536 21.838C64.1963 21.4833 64.3363 20.8907 64.3736 20.06L64.7236 13.2H69.4136V23H68.1536V14.18H65.9416L65.6336 20.06C65.5776 21.1147 65.3816 21.894 65.0456 22.398C64.719 22.8927 64.3083 23.14 63.8136 23.14ZM70.6775 23L73.0575 13.2H74.8775L77.2575 23H75.9975L75.3675 20.48H72.5675L71.9375 23H70.6775ZM72.7775 19.5H75.1575L73.9955 14.6H73.9395L72.7775 19.5ZM79.2169 23V14.18H76.9769V13.2H82.7169V14.18H80.4769V23H79.2169ZM83.8325 23V13.2H85.0925V17.54H88.0325V13.2H89.2925V23H88.0325V18.52H85.0925V23H83.8325ZM93.9863 23.14C93.3237 23.14 92.773 22.9907 92.3344 22.692C91.8957 22.384 91.5597 21.8613 91.3264 21.124C91.093 20.3773 90.9764 19.3693 90.9764 18.1C90.9764 16.8307 91.093 15.8273 91.3264 15.09C91.5597 14.3433 91.8957 13.8207 92.3344 13.522C92.773 13.214 93.3237 13.06 93.9863 13.06C94.649 13.06 95.1997 13.214 95.6383 13.522C96.077 13.8207 96.413 14.3433 96.6463 15.09C96.8797 15.8273 96.9963 16.8307 96.9963 18.1C96.9963 19.3693 96.8797 20.3773 96.6463 21.124C96.413 21.8613 96.077 22.384 95.6383 22.692C95.1997 22.9907 94.649 23.14 93.9863 23.14ZM93.9863 22.3C95.153 22.3 95.7363 20.9 95.7363 18.1C95.7363 15.3 95.153 13.9 93.9863 13.9C92.8197 13.9 92.2364 15.3 92.2364 18.1C92.2364 20.9 92.8197 22.3 93.9863 22.3Z" fill="white"/>
</svg>
