<svg width="135" height="38" viewBox="0 0 135 38" fill="none" xmlns="http://www.w3.org/2000/svg">
<rect opacity="0.3" width="135" height="38" fill="white"/>
<path d="M30.1439 22.02H30.8439C30.8439 22.048 30.8999 21.9313 31.0119 21.67C31.1333 21.3993 31.2453 21.054 31.3479 20.634C31.4506 20.2047 31.5159 19.71 31.5439 19.15L31.8239 13.2H36.3739V22.02H37.2839V25.1H36.5139C36.3086 24.54 36.1686 23.84 36.0939 23H31.3339C31.2686 23.84 31.1286 24.54 30.9139 25.1H30.1439V22.02ZM35.1139 22.02V14.18H33.0419L32.8039 19.15C32.7759 19.71 32.7106 20.2047 32.6079 20.634C32.5053 21.054 32.3933 21.3993 32.2719 21.67C32.1599 21.9313 32.1039 22.048 32.1039 22.02H35.1139ZM38.4728 23.14C38.2675 23.14 38.0762 23.1167 37.8988 23.07C37.7215 23.0327 37.6328 23.0093 37.6328 23V22.37C38.0435 22.37 38.3702 22.1927 38.6128 21.838C38.8555 21.4833 38.9955 20.8907 39.0328 20.06L39.3828 13.2H44.0728V23H42.8128V14.18H40.6008L40.2928 20.06C40.2368 21.1147 40.0408 21.894 39.7048 22.398C39.3782 22.8927 38.9675 23.14 38.4728 23.14ZM46.0367 23.14C45.8593 23.14 45.6867 23.1213 45.5187 23.084C45.3507 23.0467 45.2433 23.0187 45.1967 23V22.37C45.5327 22.37 45.7847 22.2953 45.9527 22.146C46.1207 21.9873 46.242 21.7587 46.3167 21.46L46.5967 20.27C46.802 19.3927 47.152 18.8747 47.6467 18.716V18.66C47.32 18.6133 47.012 18.4827 46.7227 18.268C46.4427 18.0533 46.2093 17.7547 46.0227 17.372C45.8453 16.9893 45.7567 16.532 45.7567 16C45.7567 15.2907 45.8593 14.726 46.0647 14.306C46.27 13.8767 46.592 13.564 47.0307 13.368C47.4787 13.1627 48.0807 13.06 48.8367 13.06C49.7047 13.06 50.4513 13.1533 51.0767 13.34V23H49.8167V19.01H49.2567C48.5753 19.01 48.132 19.43 47.9267 20.27L47.6467 21.46C47.5067 22.02 47.3013 22.44 47.0307 22.72C46.76 23 46.4287 23.14 46.0367 23.14ZM49.8167 18.03V13.97H48.8367C48.202 13.97 47.74 14.1287 47.4507 14.446C47.1613 14.754 47.0167 15.272 47.0167 16C47.0167 16.728 47.1613 17.2507 47.4507 17.568C47.74 17.876 48.202 18.03 48.8367 18.03H49.8167ZM59.3366 23.14C58.646 23.14 58.0766 22.9907 57.6286 22.692C57.1806 22.384 56.84 21.8613 56.6066 21.124C56.3733 20.3867 56.2566 19.3787 56.2566 18.1C56.2566 16.8307 56.3733 15.8273 56.6066 15.09C56.84 14.3527 57.1666 13.83 57.5866 13.522C58.016 13.214 58.5526 13.06 59.1966 13.06C59.5886 13.06 59.9806 13.088 60.3726 13.144C60.7646 13.2 61.0726 13.2653 61.2966 13.34V13.97H59.4766C58.8513 13.97 58.366 14.2733 58.0206 14.88C57.6846 15.4867 57.5166 16.56 57.5166 18.1C57.5166 19.1547 57.6006 19.9853 57.7686 20.592C57.9366 21.1987 58.1746 21.6233 58.4826 21.866C58.7906 22.1087 59.1686 22.23 59.6166 22.23H61.4366V22.86C61.2126 22.9347 60.9046 23 60.5126 23.056C60.13 23.112 59.738 23.14 59.3366 23.14ZM64.0206 23V14.18H61.7806V13.2H67.5206V14.18H65.2806V23H64.0206ZM68.6362 13.34C69.2616 13.1533 70.0082 13.06 70.8762 13.06C71.6416 13.06 72.2436 13.1673 72.6822 13.382C73.1302 13.5967 73.4522 13.956 73.6482 14.46C73.8536 14.964 73.9562 15.664 73.9562 16.56C73.9562 17.4653 73.8629 18.1793 73.6762 18.702C73.4896 19.2153 73.2002 19.584 72.8082 19.808C72.4256 20.0227 71.9216 20.13 71.2962 20.13C71.0909 20.13 70.8529 20.116 70.5822 20.088C70.3116 20.06 70.0829 20.0273 69.8962 19.99V23H68.6362V13.34ZM70.8762 19.15C71.3149 19.15 71.6649 19.0753 71.9262 18.926C72.1876 18.7673 72.3789 18.5013 72.5002 18.128C72.6309 17.7547 72.6962 17.232 72.6962 16.56C72.6962 15.888 72.6309 15.3653 72.5002 14.992C72.3789 14.6187 72.1876 14.3573 71.9262 14.208C71.6649 14.0493 71.3149 13.97 70.8762 13.97H69.8962V19.15H70.8762ZM78.2295 23.14C77.5669 23.14 77.0162 22.9907 76.5775 22.692C76.1389 22.384 75.8029 21.8613 75.5695 21.124C75.3362 20.3773 75.2195 19.3693 75.2195 18.1C75.2195 16.8307 75.3362 15.8273 75.5695 15.09C75.8029 14.3433 76.1389 13.8207 76.5775 13.522C77.0162 13.214 77.5669 13.06 78.2295 13.06C78.8922 13.06 79.4429 13.214 79.8815 13.522C80.3202 13.8207 80.6562 14.3433 80.8895 15.09C81.1229 15.8273 81.2395 16.8307 81.2395 18.1C81.2395 19.3693 81.1229 20.3773 80.8895 21.124C80.6562 21.8613 80.3202 22.384 79.8815 22.692C79.4429 22.9907 78.8922 23.14 78.2295 23.14ZM78.2295 22.3C79.3962 22.3 79.9795 20.9 79.9795 18.1C79.9795 15.3 79.3962 13.9 78.2295 13.9C77.0629 13.9 76.4795 15.3 76.4795 18.1C76.4795 20.9 77.0629 22.3 78.2295 22.3ZM85.7233 12.36C85.2753 12.36 84.8787 12.2667 84.5333 12.08C84.1973 11.8933 83.9407 11.6367 83.7633 11.31L84.3233 10.75C84.5007 10.9273 84.706 11.0767 84.9393 11.198C85.182 11.3193 85.4433 11.38 85.7233 11.38C86.0033 11.38 86.26 11.3193 86.4933 11.198C86.736 11.0767 86.946 10.9273 87.1233 10.75L87.6833 11.31C87.506 11.6367 87.2447 11.8933 86.8993 12.08C86.5633 12.2667 86.1713 12.36 85.7233 12.36ZM82.9233 23V13.2H84.1833V20.48H84.2533L87.0533 13.2H88.5233V23H87.2633V15.72H87.1933L84.3233 23H82.9233ZM95.5239 23.14C95.1039 23.14 94.7539 23 94.4739 22.72C94.2032 22.44 94.0166 22.02 93.9139 21.46L93.5639 19.64C93.4799 19.1827 93.3212 18.8607 93.0879 18.674C92.8639 18.478 92.5792 18.38 92.2339 18.38H91.7439V23H90.4839V13.2H91.7439V17.4H92.2339C92.8219 17.4 93.2186 16.98 93.4239 16.14L93.7739 14.74C93.9139 14.18 94.1192 13.76 94.3899 13.48C94.6606 13.2 94.9919 13.06 95.3839 13.06C95.5892 13.06 95.7806 13.0833 95.9579 13.13C96.1352 13.1673 96.2239 13.1907 96.2239 13.2V13.83C95.8879 13.83 95.6359 13.9093 95.4679 14.068C95.2999 14.2173 95.1786 14.4413 95.1039 14.74L94.7539 16.14C94.6139 16.7093 94.4506 17.1153 94.2639 17.358C94.0772 17.6007 93.8206 17.7687 93.4939 17.862V17.918C93.8766 18.0207 94.1799 18.198 94.4039 18.45C94.6279 18.6927 94.7912 19.0893 94.8939 19.64L95.2439 21.46C95.2999 21.7307 95.4166 21.95 95.5939 22.118C95.7806 22.286 96.0372 22.37 96.3639 22.37V23C96.3639 23.0093 96.2752 23.0327 96.0979 23.07C95.9206 23.1167 95.7292 23.14 95.5239 23.14ZM97.4155 23V13.2H98.6755V20.48H98.7455L101.546 13.2H103.016V23H101.756V15.72H101.686L98.8155 23H97.4155Z" fill="white"/>
</svg>
